<svg width="66" height="46" viewBox="0 0 66 46" fill="none" xmlns="http://www.w3.org/2000/svg">
<path d="M65.1213 25.1213C66.2929 23.9497 66.2929 22.0503 65.1213 20.8787L46.0294 1.7868C44.8579 0.615224 42.9584 0.615224 41.7868 1.7868C40.6152 2.95837 40.6152 4.85786 41.7868 6.02944L58.7574 23L41.7868 39.9706C40.6152 41.1421 40.6152 43.0416 41.7868 44.2132C42.9584 45.3848 44.8579 45.3848 46.0294 44.2132L65.1213 25.1213ZM3 20C1.34315 20 1.10722e-06 21.3431 1.10722e-06 23C1.10722e-06 24.6569 1.34315 26 3 26V20ZM63 20L3 20V26L63 26V20Z" fill="#1E1E1E"/>
</svg>
