<?xml version="1.0" standalone="no"?>
<!DOCTYPE svg PUBLIC "-//W3C//DTD SVG 20010904//EN"
 "http://www.w3.org/TR/2001/REC-SVG-20010904/DTD/svg10.dtd">
<svg version="1.0" xmlns="http://www.w3.org/2000/svg"
 width="26.000000pt" height="26.000000pt" viewBox="0 0 26.000000 26.000000"
 preserveAspectRatio="xMidYMid meet">

<g transform="translate(0.000000,26.000000) scale(0.100000,-0.100000)"
fill="#000000" stroke="none">
<path d="M10 220 c0 -5 5 -10 10 -10 6 0 20 -21 31 -46 14 -35 17 -50 8 -60
-6 -7 -8 -18 -4 -24 8 -13 155 -13 155 0 0 6 -28 10 -65 10 -77 0 -88 18 -13
22 50 3 54 5 75 43 12 21 19 43 17 47 -3 4 -43 8 -90 8 -49 0 -84 4 -84 10 0
6 -9 10 -20 10 -11 0 -20 -4 -20 -10z"/>
<path d="M56 41 c-9 -15 23 -36 36 -23 5 5 7 15 4 21 -9 13 -33 14 -40 2z"/>
<path d="M164 39 c-3 -6 -1 -16 4 -21 13 -13 45 8 36 23 -7 12 -31 11 -40 -2z"/>
</g>
</svg>
